<svg width="33" height="32" viewBox="0 0 33 32" fill="none" xmlns="http://www.w3.org/2000/svg">
<path d="M22.6875 14C22.6875 17.32 19.9237 20 16.5 20C13.0763 20 10.3125 17.32 10.3125 14C10.3125 10.68 13.0763 8 16.5 8C19.9237 8 22.6875 10.68 22.6875 14Z" fill="#689F38"/>
<path fill-rule="evenodd" clip-rule="evenodd" d="M33 16C33 24.84 25.6163 32 16.5 32C7.38375 32 0 24.84 0 16C0 7.16 7.38375 0 16.5 0C25.6163 0 33 7.16 33 16ZM8.25 27.5C8.58 26.968 11.7769 22 16.4794 22C21.1612 22 24.3787 26.98 24.7087 27.5C26.6266 26.214 28.1936 24.4955 29.275 22.4922C30.3564 20.489 30.9199 18.2611 30.9169 16C30.9169 8.26 24.4612 2 16.4794 2C8.4975 2 2.04188 8.26 2.04188 16C2.04188 20.76 4.49625 24.98 8.25 27.5Z" fill="#689F38"/>
</svg>
