<svg width="137" height="137" viewBox="0 0 137 137" fill="none" xmlns="http://www.w3.org/2000/svg">
<circle cx="68.4798" cy="68.4798" r="68.4798" fill="#E0ECEF"/>
<path d="M94.1856 45.6426C99.2547 45.2071 101.998 47.1625 103.107 50.3086C104.216 53.4556 97.8796 79.5384 93.8731 84.2901C91.2309 87.4237 71.329 82.8916 71.5411 84.2325C72.6873 91.4021 74.5915 97.6351 75.211 100.283C75.5797 101.857 86.2632 127.213 88.5245 130.526C89.1174 131.395 89.7312 132.358 90.3565 133.39C86.8432 134.573 83.2023 135.479 79.46 136.082C76.9093 131.447 71.9308 122.47 69.6016 120.114C68.7478 121.246 69.4308 128.375 70.5938 136.926C69.8918 136.947 69.1867 136.96 68.4795 136.96C65.1846 136.96 61.9442 136.725 58.7735 136.275C56.8821 113.075 55.0909 86.3799 55.0909 86.3799C55.0909 86.3799 48.1366 87.6624 46.0606 89.2403C43.9848 90.818 44.9987 103.231 41.4161 116.814C40.2317 121.303 28.2282 120.805 28.67 114.754C30.0309 96.1299 31.7814 83.3889 34.4971 80.5401C36.905 78.0147 49.151 70.6409 59.7559 69.2256C71.8443 67.6125 80.6596 73.8553 84.3672 71.4737C89.9128 67.9113 89.1163 46.0782 94.1856 45.6426ZM50.2784 45.8389C54.1032 35.7915 67.4337 33.5869 74.2159 41.8799C80.9976 50.173 76.1904 62.8001 65.584 64.5547C54.9772 66.3093 46.4537 55.8866 50.2784 45.8389Z" fill="#423D3D"/>
<path d="M107.742 31.0115C109.153 30.5346 110.309 29.6388 110.526 27.493C110.551 27.2483 110.717 27.0592 110.952 26.996C111.35 26.8895 112.844 27.5502 113.259 27.6954C112.469 24.7491 110.418 22.5231 107.195 23.3866C104.481 24.1138 103.035 26.1797 103.768 28.9139C103.798 29.0252 103.849 29.1252 103.89 29.2312L107.742 31.0115ZM100.301 44.8676C100.843 44.7223 101.287 44.346 101.582 43.8936C107.145 35.4009 107.864 35.0435 107.349 33.1204C107.218 32.6302 106.976 32.1941 106.666 31.8194L103.873 30.5286C103.597 30.5333 103.32 30.5605 103.042 30.6348C100.82 31.2303 99.9682 33.2022 97.9462 41.8348C97.8197 42.419 97.735 43.0361 97.8898 43.6135C98.1669 44.6479 99.295 45.1371 100.301 44.8676Z" fill="#423D3D"/>
<g clip-path="url(#clip0_192_28)">
<path d="M32.7741 63.9652C32.8149 60.1683 31.3533 57.6894 28.3894 56.5286C25.4256 55.3678 23.7455 54.1182 23.3494 52.7797M20.2143 43.6631C21.0067 46.34 23.2467 48.0062 26.9344 48.6616C28.646 48.9658 30.1666 49.9374 31.1618 51.3628C32.157 52.7882 32.5452 54.5505 32.241 56.2621C31.9368 57.9736 30.9652 59.4943 29.5398 60.4895C28.1145 61.4847 26.3521 61.8729 24.6406 61.5687C22.8597 61.3104 21.2016 60.4938 19.8645 59.2165C18.5274 57.9392 17.568 56.2553 17.1011 54.3664C16.6341 52.4774 16.6794 50.4634 17.2315 48.5652C17.7837 46.667 18.8192 44.9651 20.2143 43.6631Z" stroke="#689F38" stroke-width="2.5" stroke-linecap="round" stroke-linejoin="round"/>
</g>
<g clip-path="url(#clip1_192_28)">
<path d="M101.192 97.2258C102.409 93.9243 104.493 92.26 107.443 92.2328C110.393 92.2057 112.26 91.6779 113.044 90.6496M118.768 83.7894C117.198 85.8461 114.709 86.5498 111.299 85.9004C109.716 85.599 108.079 85.9386 106.747 86.8445C105.415 87.7504 104.497 89.1485 104.195 90.731C103.894 92.3136 104.234 93.951 105.14 95.2832C106.046 96.6154 107.444 97.5331 109.026 97.8345C110.653 98.1985 112.359 98.0385 113.938 97.3736C115.518 96.7087 116.904 95.5672 117.932 94.0855C118.959 92.6038 119.585 90.8447 119.733 89.0188C119.881 87.1928 119.546 85.3773 118.768 83.7894Z" stroke="#689F38" stroke-width="2.5" stroke-linecap="round" stroke-linejoin="round"/>
</g>
<defs>
<clipPath id="clip0_192_28">
<rect width="22.4731" height="22.4731" fill="white" transform="matrix(-0.984572 -0.174979 -0.174979 0.984572 38.0587 44.9323)"/>
</clipPath>
<clipPath id="clip1_192_28">
<rect width="20.8262" height="20.8262" fill="white" transform="translate(102.896 79) rotate(10.7827)"/>
</clipPath>
</defs>
</svg>
