<svg width="32" height="32" viewBox="0 0 32 32" fill="none" xmlns="http://www.w3.org/2000/svg">
<g clip-path="url(#clip0_341_16)">
<path d="M15.9996 0.599976C16.3497 0.599976 16.6854 0.739046 16.933 0.986594C17.1805 1.23414 17.3196 1.56989 17.3196 1.91998C17.3196 2.27006 17.1805 2.60581 16.933 2.85336C16.6854 3.1009 16.3497 3.23998 15.9996 3.23998C12.6154 3.23998 9.36989 4.58433 6.97693 6.97729C4.58396 9.37026 3.23961 12.6158 3.23961 16C3.23961 19.3841 4.58396 22.6297 6.97693 25.0227C9.36989 27.4156 12.6154 28.76 15.9996 28.76C16.3497 28.76 16.6854 28.899 16.933 29.1466C17.1805 29.3941 17.3196 29.7299 17.3196 30.08C17.3196 30.4301 17.1805 30.7658 16.933 31.0134C16.6854 31.2609 16.3497 31.4 15.9996 31.4C11.9153 31.4 7.99822 29.7775 5.11016 26.8894C2.2221 24.0014 0.599609 20.0843 0.599609 16C0.599609 11.9156 2.2221 7.99859 5.11016 5.11053C7.99822 2.22247 11.9153 0.599976 15.9996 0.599976Z" fill="#689F38"/>
<path d="M23.8674 11.6527C23.6342 11.4025 23.5073 11.0715 23.5133 10.7296C23.5193 10.3876 23.6579 10.0613 23.8997 9.81948C24.1415 9.57764 24.4678 9.4391 24.8098 9.43307C25.1518 9.42703 25.4827 9.55397 25.733 9.78714L31.013 15.0671C31.2601 15.3146 31.399 15.6501 31.399 15.9999C31.399 16.3497 31.2601 16.6852 31.013 16.9327L25.733 22.2127C25.6121 22.3424 25.4664 22.4464 25.3045 22.5186C25.1425 22.5907 24.9678 22.6295 24.7905 22.6327C24.6133 22.6358 24.4372 22.6032 24.2729 22.5368C24.1085 22.4704 23.9592 22.3716 23.8338 22.2462C23.7085 22.1209 23.6097 21.9716 23.5433 21.8072C23.4769 21.6429 23.4443 21.4668 23.4474 21.2896C23.4506 21.1123 23.4894 20.9375 23.5615 20.7756C23.6336 20.6137 23.7377 20.468 23.8674 20.3471L26.8946 17.3199H12.4802C12.1301 17.3199 11.7943 17.1809 11.5468 16.9333C11.2992 16.6858 11.1602 16.35 11.1602 15.9999C11.1602 15.6498 11.2992 15.3141 11.5468 15.0666C11.7943 14.819 12.1301 14.6799 12.4802 14.6799H26.8946L23.8674 11.6527Z" fill="#689F38"/>
</g>
<defs>
<clipPath id="clip0_341_16">
<rect width="32" height="32" fill="white"/>
</clipPath>
</defs>
</svg>
